<svg width="46" height="46" viewBox="0 0 46 46" fill="none" xmlns="http://www.w3.org/2000/svg">
<path d="M23.0631 20.0598C22.5364 20.0575 22.021 20.2116 21.582 20.5026C21.143 20.7935 20.8002 21.2082 20.5971 21.6941C20.3939 22.18 20.3396 22.7153 20.441 23.2321C20.5423 23.7489 20.7948 24.224 21.1664 24.5972C21.538 24.9704 22.012 25.2249 22.5283 25.3285C23.0447 25.4321 23.5802 25.3801 24.067 25.1791C24.5537 24.9781 24.9699 24.6371 25.2628 24.1993C25.5556 23.7616 25.7119 23.2468 25.7119 22.7202C25.7127 22.3715 25.6448 22.0262 25.512 21.7038C25.3793 21.3815 25.1844 21.0884 24.9385 20.8414C24.6925 20.5944 24.4003 20.3982 24.0785 20.2641C23.7567 20.13 23.4117 20.0606 23.0631 20.0598ZM11.7892 20.0598C11.2626 20.0575 10.7471 20.2116 10.3081 20.5026C9.86912 20.7935 9.52635 21.2082 9.32323 21.6941C9.12011 22.18 9.06578 22.7153 9.16713 23.2321C9.26848 23.7489 9.52094 24.224 9.89253 24.5972C10.2641 24.9704 10.7381 25.2249 11.2545 25.3285C11.7709 25.4321 12.3064 25.3801 12.7931 25.1791C13.2799 24.9781 13.6961 24.6371 13.9889 24.1993C14.2817 23.7616 14.4381 23.2468 14.4381 22.7202C14.4388 22.3715 14.3709 22.0262 14.2382 21.7038C14.1055 21.3815 13.9106 21.0884 13.6646 20.8414C13.4187 20.5944 13.1265 20.3982 12.8047 20.2641C12.4829 20.13 12.1378 20.0606 11.7892 20.0598ZM22.9998 5.68098C19.5715 5.66733 16.2163 6.67145 13.3592 8.56616C10.502 10.4609 8.27146 13.1609 6.95004 16.3243C5.62862 19.4877 5.27579 22.9722 5.93623 26.3363C6.59668 29.7004 8.24069 32.7928 10.66 35.2218C13.0794 37.6508 16.1652 39.3071 19.5266 39.981C22.888 40.6549 26.3738 40.3159 29.5425 39.0072C32.7111 37.6984 35.4201 35.4786 37.3262 32.629C39.2323 29.7795 40.2498 26.4283 40.2498 23C40.258 18.4162 38.4454 14.0167 35.2106 10.769C31.9758 7.52128 27.5836 5.69114 22.9998 5.68098ZM14.5282 28.0178V26.5842C14.2024 27.0099 13.7829 27.3548 13.3023 27.5921C12.8216 27.8295 12.2927 27.9528 11.7567 27.9527C10.3669 27.9527 9.03402 27.4006 8.0513 26.4178C7.06858 25.4351 6.51649 24.1023 6.51649 22.7125C6.51649 21.3227 7.06858 19.9899 8.0513 19.0071C9.03402 18.0244 10.3669 17.4723 11.7567 17.4723C13.1594 17.4658 14.5089 18.0088 15.5163 18.985C16.5237 19.9612 17.1088 21.293 17.1463 22.6952V27.9987L14.5282 28.0178ZM23.1302 28.1002C21.7271 28.1073 20.3771 27.5645 19.3693 26.5883C18.3615 25.612 17.7761 24.2799 17.7386 22.8773V14.0607H20.3548V18.9884C20.6804 18.5623 21.0998 18.217 21.5805 17.9794C22.0611 17.7417 22.5901 17.618 23.1263 17.618C24.499 17.6442 25.8066 18.208 26.7681 19.188C27.7296 20.168 28.2682 21.4862 28.2682 22.8591C28.2682 24.232 27.7296 25.5502 26.7681 26.5302C25.8066 27.5103 24.499 28.074 23.1263 28.1002H23.1302ZM34.3542 27.9776C32.9815 27.9513 31.6739 27.3876 30.7124 26.4075C29.7509 25.4275 29.2123 24.1094 29.2123 22.7364C29.2123 21.3635 29.7509 20.0454 30.7124 19.0653C31.6739 18.0853 32.9815 17.5216 34.3542 17.4953C35.56 17.5096 36.7249 17.9354 37.6556 18.7023C38.5863 19.4692 39.2271 20.5311 39.4717 21.712L36.8458 21.7024C36.5987 21.1484 36.1685 20.6963 35.6275 20.4219C35.0865 20.1476 34.4675 20.0677 33.8746 20.1956C33.2816 20.3236 32.7507 20.6516 32.371 21.1246C31.9912 21.5976 31.7857 22.1869 31.789 22.7935C31.7923 23.4001 32.0041 23.9871 32.389 24.456C32.7738 24.9249 33.3082 25.2472 33.9025 25.3687C34.4969 25.4903 35.1149 25.4037 35.6529 25.1235C36.1909 24.8433 36.6162 24.3865 36.8573 23.8299L39.4812 23.8184C39.2391 24.9979 38.5961 26.0573 37.6615 26.8165C36.7269 27.5757 35.5583 27.988 34.3542 27.9833V27.9776Z" fill="white"/>
</svg>
