<svg width="31" height="35" viewBox="0 0 31 35" fill="none" xmlns="http://www.w3.org/2000/svg">
<g clip-path="url(#clip0_450_2011)">
<path d="M6.5625 0C2.93945 0 0 2.93945 0 6.5625V28.4375C0 32.0605 2.93945 35 6.5625 35H28.4375C29.6475 35 30.625 34.0225 30.625 32.8125C30.625 31.6025 29.6475 30.625 28.4375 30.625V26.25C29.6475 26.25 30.625 25.2725 30.625 24.0625V2.1875C30.625 0.977539 29.6475 0 28.4375 0H6.5625ZM6.5625 26.25H24.0625V30.625H6.5625C5.35254 30.625 4.375 29.6475 4.375 28.4375C4.375 27.2275 5.35254 26.25 6.5625 26.25ZM8.75 9.84375C8.75 9.24219 9.24219 8.75 9.84375 8.75H22.9688C23.5703 8.75 24.0625 9.24219 24.0625 9.84375C24.0625 10.4453 23.5703 10.9375 22.9688 10.9375H9.84375C9.24219 10.9375 8.75 10.4453 8.75 9.84375ZM9.84375 13.125H22.9688C23.5703 13.125 24.0625 13.6172 24.0625 14.2188C24.0625 14.8203 23.5703 15.3125 22.9688 15.3125H9.84375C9.24219 15.3125 8.75 14.8203 8.75 14.2188C8.75 13.6172 9.24219 13.125 9.84375 13.125Z" fill="white"/>
</g>
<defs>
<clipPath id="clip0_450_2011">
<rect width="30.625" height="35" fill="white"/>
</clipPath>
</defs>
</svg>
