<svg width="41" height="41" viewBox="0 0 41 41" fill="none" xmlns="http://www.w3.org/2000/svg">
<path fill-rule="evenodd" clip-rule="evenodd" d="M20.5 37.5834C13.2515 37.5834 9.62817 37.5834 7.37658 35.0806C5.125 32.5814 5.125 28.5531 5.125 20.5C5.125 12.4469 5.125 8.4204 7.37658 5.91769C9.62817 3.41498 13.2533 3.41669 20.5 3.41669C27.7467 3.41669 31.3718 3.41669 33.6234 5.91769C35.875 8.4221 35.875 12.4469 35.875 20.5C35.875 28.5531 35.875 32.5796 33.6234 35.0806C31.3718 37.5816 27.7467 37.5834 20.5 37.5834ZM25.625 10.25H15.375C14.5806 10.25 14.1843 10.25 13.858 10.3371C13.4239 10.4536 13.028 10.6823 12.7102 11.0001C12.3923 11.318 12.1637 11.7138 12.0472 12.148C11.9583 12.4777 11.9583 12.874 11.9583 13.6667C11.9583 14.4594 11.9583 14.8574 12.0455 15.1837C12.162 15.6178 12.3906 16.0137 12.7084 16.3315C13.0263 16.6494 13.4221 16.878 13.8563 16.9945C14.186 17.0834 14.5823 17.0834 15.375 17.0834H25.625C26.4194 17.0834 26.8157 17.0834 27.142 16.9962C27.5761 16.8797 27.972 16.6511 28.2899 16.3332C28.6077 16.0154 28.8363 15.6195 28.9528 15.1854C29.0417 14.8557 29.0417 14.4594 29.0417 13.6667C29.0417 12.874 29.0417 12.476 28.9545 12.1497C28.838 11.7155 28.6094 11.3197 28.2916 11.0018C27.9737 10.684 27.5779 10.4553 27.1437 10.3389C26.8157 10.25 26.4177 10.25 25.625 10.25ZM15.375 22.2084C15.375 22.6614 15.195 23.096 14.8746 23.4163C14.5543 23.7367 14.1197 23.9167 13.6667 23.9167C13.2136 23.9167 12.7791 23.7367 12.4587 23.4163C12.1383 23.096 11.9583 22.6614 11.9583 22.2084C11.9583 21.7553 12.1383 21.3208 12.4587 21.0004C12.7791 20.68 13.2136 20.5 13.6667 20.5C14.1197 20.5 14.5543 20.68 14.8746 21.0004C15.195 21.3208 15.375 21.7553 15.375 22.2084ZM20.5 23.9167C20.9531 23.9167 21.3876 23.7367 21.708 23.4163C22.0283 23.096 22.2083 22.6614 22.2083 22.2084C22.2083 21.7553 22.0283 21.3208 21.708 21.0004C21.3876 20.68 20.9531 20.5 20.5 20.5C20.0469 20.5 19.6124 20.68 19.292 21.0004C18.9717 21.3208 18.7917 21.7553 18.7917 22.2084C18.7917 22.6614 18.9717 23.096 19.292 23.4163C19.6124 23.7367 20.0469 23.9167 20.5 23.9167ZM29.0417 22.2084C29.0417 22.6614 28.8617 23.096 28.5413 23.4163C28.2209 23.7367 27.7864 23.9167 27.3333 23.9167C26.8803 23.9167 26.4457 23.7367 26.1254 23.4163C25.805 23.096 25.625 22.6614 25.625 22.2084C25.625 21.7553 25.805 21.3208 26.1254 21.0004C26.4457 20.68 26.8803 20.5 27.3333 20.5C27.7864 20.5 28.2209 20.68 28.5413 21.0004C28.8617 21.3208 29.0417 21.7553 29.0417 22.2084ZM27.3333 30.75C27.7864 30.75 28.2209 30.57 28.5413 30.2497C28.8617 29.9293 29.0417 29.4948 29.0417 29.0417C29.0417 28.5886 28.8617 28.1541 28.5413 27.8337C28.2209 27.5133 27.7864 27.3334 27.3333 27.3334C26.8803 27.3334 26.4457 27.5133 26.1254 27.8337C25.805 28.1541 25.625 28.5886 25.625 29.0417C25.625 29.4948 25.805 29.9293 26.1254 30.2497C26.4457 30.57 26.8803 30.75 27.3333 30.75ZM22.2083 29.0417C22.2083 29.4948 22.0283 29.9293 21.708 30.2497C21.3876 30.57 20.9531 30.75 20.5 30.75C20.0469 30.75 19.6124 30.57 19.292 30.2497C18.9717 29.9293 18.7917 29.4948 18.7917 29.0417C18.7917 28.5886 18.9717 28.1541 19.292 27.8337C19.6124 27.5133 20.0469 27.3334 20.5 27.3334C20.9531 27.3334 21.3876 27.5133 21.708 27.8337C22.0283 28.1541 22.2083 28.5886 22.2083 29.0417ZM13.6667 30.75C14.1197 30.75 14.5543 30.57 14.8746 30.2497C15.195 29.9293 15.375 29.4948 15.375 29.0417C15.375 28.5886 15.195 28.1541 14.8746 27.8337C14.5543 27.5133 14.1197 27.3334 13.6667 27.3334C13.2136 27.3334 12.7791 27.5133 12.4587 27.8337C12.1383 28.1541 11.9583 28.5886 11.9583 29.0417C11.9583 29.4948 12.1383 29.9293 12.4587 30.2497C12.7791 30.57 13.2136 30.75 13.6667 30.75Z" fill="white"/>
</svg>
