<svg width="40" height="40" viewBox="0 0 40 40" fill="none" xmlns="http://www.w3.org/2000/svg">
<path d="M11.6668 22.5C12.3613 22.5 12.9518 22.2572 13.4385 21.7717C13.9252 21.2861 14.1679 20.6956 14.1668 20C14.1657 19.3045 13.9229 18.7145 13.4385 18.23C12.9541 17.7456 12.3635 17.5022 11.6668 17.5C10.9702 17.4978 10.3802 17.7411 9.89683 18.23C9.4135 18.7189 9.17016 19.3089 9.16683 20C9.1635 20.6911 9.40683 21.2817 9.89683 21.7717C10.3868 22.2617 10.9768 22.5045 11.6668 22.5ZM20.0002 22.5C20.6946 22.5 21.2852 22.2572 21.7718 21.7717C22.2585 21.2861 22.5013 20.6956 22.5002 20C22.4991 19.3045 22.2563 18.7145 21.7718 18.23C21.2874 17.7456 20.6968 17.5022 20.0002 17.5C19.3035 17.4978 18.7135 17.7411 18.2302 18.23C17.7468 18.7189 17.5035 19.3089 17.5002 20C17.4968 20.6911 17.7402 21.2817 18.2302 21.7717C18.7202 22.2617 19.3102 22.5045 20.0002 22.5ZM28.3335 22.5C29.0279 22.5 29.6185 22.2572 30.1052 21.7717C30.5918 21.2861 30.8346 20.6956 30.8335 20C30.8324 19.3045 30.5896 18.7145 30.1052 18.23C29.6207 17.7456 29.0302 17.5022 28.3335 17.5C27.6368 17.4978 27.0468 17.7411 26.5635 18.23C26.0802 18.7189 25.8368 19.3089 25.8335 20C25.8302 20.6911 26.0735 21.2817 26.5635 21.7717C27.0535 22.2617 27.6435 22.5045 28.3335 22.5ZM20.0002 36.6667C17.6946 36.6667 15.5279 36.2289 13.5002 35.3533C11.4724 34.4778 9.7085 33.2906 8.2085 31.7917C6.7085 30.2928 5.52128 28.5289 4.64683 26.5C3.77239 24.4711 3.33461 22.3045 3.3335 20C3.33239 17.6956 3.77016 15.5289 4.64683 13.5C5.5235 11.4711 6.71072 9.70723 8.2085 8.20834C9.70628 6.70946 11.4702 5.52223 13.5002 4.64668C15.5302 3.77112 17.6968 3.33334 20.0002 3.33334C22.3035 3.33334 24.4702 3.77112 26.5002 4.64668C28.5302 5.52223 30.2941 6.70946 31.7918 8.20834C33.2896 9.70723 34.4774 11.4711 35.3552 13.5C36.2329 15.5289 36.6702 17.6956 36.6668 20C36.6635 22.3045 36.2257 24.4711 35.3535 26.5C34.4813 28.5289 33.2941 30.2928 31.7918 31.7917C30.2896 33.2906 28.5257 34.4783 26.5002 35.355C24.4746 36.2317 22.3079 36.6689 20.0002 36.6667Z" fill="white"/>
</svg>
