<svg width="42" height="42" viewBox="0 0 42 42" fill="none" xmlns="http://www.w3.org/2000/svg">
<path d="M26.2501 17.1203V7H28.0001V3.5H14.0001V7H15.7501V17.1203L8.28115 33.551C8.03724 34.084 7.93181 34.67 7.97464 35.2546C8.01747 35.8392 8.20716 36.4035 8.52615 36.8953C8.84197 37.3885 9.27712 37.7942 9.79132 38.0747C10.3055 38.3552 10.8822 38.5015 11.4679 38.5H30.5341C31.1199 38.5015 31.6965 38.3552 32.2107 38.0747C32.7249 37.7942 33.1601 37.3885 33.4759 36.8953C34.1234 35.8908 34.2161 34.6395 33.7209 33.551L26.2501 17.1203ZM19.0926 18.2245C19.1976 17.997 19.2501 17.7503 19.2501 17.5V7H22.7501V17.5C22.7501 17.7503 22.8026 17.997 22.9076 18.2245L26.5599 26.25H15.4439L19.0926 18.2245Z" fill="white"/>
</svg>
