<svg width="40" height="40" viewBox="0 0 40 40" fill="none" xmlns="http://www.w3.org/2000/svg">
<path d="M20.8596 37.0312L20.7971 37.0211C20.8058 37.0279 20.8161 37.0323 20.827 37.0341C20.8379 37.0359 20.8491 37.0349 20.8596 37.0312ZM35.0705 14.6703C35.0527 14.576 35.0039 14.4904 34.9318 14.4271C34.8598 14.3637 34.7687 14.3262 34.6729 14.3206C34.5771 14.3149 34.4822 14.3414 34.4032 14.3959C34.3242 14.4503 34.2657 14.5296 34.2369 14.6211C34.2093 14.708 34.1549 14.7839 34.0815 14.8379C34.0081 14.892 33.9195 14.9214 33.8283 14.9219H32.6197C32.5415 14.9219 32.4648 14.9005 32.3978 14.8602L30.6494 13.8117C30.5824 13.7713 30.5057 13.75 30.4275 13.75H27.6306C27.5455 13.75 27.4623 13.7753 27.3916 13.8227L23.9424 16.1219C23.8827 16.1616 23.834 16.2155 23.8004 16.2788C23.7668 16.3421 23.7496 16.4127 23.7502 16.4844V19.7453C23.7501 19.8235 23.7713 19.9002 23.8115 19.9672C23.8516 20.0342 23.9093 20.089 23.9783 20.1258L28.501 22.5398C28.5689 22.5764 28.6259 22.6304 28.666 22.6963C28.7061 22.7623 28.7279 22.8377 28.7291 22.9148L28.7502 24.75C28.7514 24.826 28.7726 24.9003 28.8117 24.9654C28.8508 25.0306 28.9064 25.0843 28.9728 25.1211L30.79 26.1266C30.8573 26.164 30.9135 26.2186 30.9526 26.285C30.9918 26.3513 31.0125 26.4269 31.0127 26.5039V30.3008C31.0127 30.3838 31.0366 30.465 31.0817 30.5347C31.1267 30.6044 31.1908 30.6596 31.2665 30.6938C31.3421 30.7279 31.426 30.7395 31.508 30.7272C31.5901 30.7148 31.6668 30.6791 31.7291 30.6242C32.4619 29.9789 33.5127 29.0367 33.6525 28.8211C33.8838 28.4633 34.1007 28.0969 34.3033 27.7219C34.7229 26.9449 35.0782 26.1349 35.3658 25.3C36.3564 22.432 35.5736 17.2766 35.0705 14.6703ZM22.3752 23.6562L17.5838 20.0625C17.5297 20.0219 17.4639 20 17.3963 20H15.1228C15.0839 20 15.0454 19.9924 15.0095 19.9775C14.9736 19.9626 14.9409 19.9408 14.9135 19.9133L13.8416 18.8414C13.8125 18.8124 13.7781 18.7894 13.7401 18.7737C13.7022 18.758 13.6615 18.75 13.6205 18.75H9.46502C9.40646 18.75 9.34921 18.7326 9.30052 18.7001C9.25182 18.6676 9.21387 18.6213 9.19146 18.5672C9.16905 18.5131 9.16318 18.4536 9.17461 18.3961C9.18603 18.3387 9.21424 18.2859 9.25565 18.2445L9.91346 17.5867C9.94093 17.5592 9.97357 17.5374 10.0095 17.5225C10.0454 17.5076 10.0839 17.5 10.1228 17.5H12.6517C12.7879 17.5 12.9204 17.4555 13.029 17.3733C13.1376 17.2911 13.2164 17.1756 13.2533 17.0445L13.7916 15.1305C13.8031 15.0893 13.8228 15.051 13.8497 15.0178C13.8766 14.9846 13.91 14.9573 13.9478 14.9375L16.0939 13.8328C16.1422 13.8079 16.1827 13.7701 16.211 13.7236C16.2392 13.6772 16.2541 13.6239 16.2541 13.5695V12.593C16.2541 12.5324 16.2726 12.4732 16.3072 12.4234L17.4478 10.7812C17.482 10.7319 17.5306 10.6943 17.5869 10.6734L19.183 10.0742C19.2395 10.0531 19.2881 10.0152 19.3225 9.9656C19.3568 9.91604 19.3752 9.85717 19.3752 9.79687V8.90625C19.3752 8.85741 19.3631 8.80933 19.3401 8.76627C19.3171 8.7232 19.2838 8.68649 19.2431 8.65937L17.6431 7.59531C17.5992 7.56639 17.5484 7.54957 17.4958 7.54655C17.4433 7.54353 17.3909 7.55442 17.3439 7.57812L15.1658 8.66718C15.116 8.69179 15.0602 8.70183 15.0049 8.69617C14.9497 8.6905 14.8971 8.66935 14.8533 8.63515L13.8205 7.81875C13.7852 7.7904 13.7569 7.75438 13.7377 7.71343C13.7185 7.67248 13.709 7.62768 13.7097 7.58246C13.7105 7.53724 13.7215 7.49279 13.7421 7.4525C13.7626 7.41221 13.7921 7.37715 13.8283 7.35L14.6674 6.73203C14.7053 6.70417 14.7361 6.66762 14.7571 6.62545C14.7781 6.58327 14.7887 6.53669 14.788 6.48959C14.7873 6.44249 14.7754 6.39623 14.7531 6.35469C14.7309 6.31315 14.6991 6.27752 14.6603 6.25078L13.3533 5.33906C13.3081 5.3072 13.2548 5.2887 13.1995 5.28566C13.1443 5.28262 13.0893 5.29517 13.0408 5.32187C12.5681 5.58047 11.1814 6.34609 10.6892 6.69062C8.41202 8.28765 6.57935 10.4387 5.36424 12.9406C5.22205 13.2344 5.04627 13.5336 5.02908 13.8562C5.0119 14.1789 4.75877 14.8992 4.6533 15.1906C4.63908 15.23 4.63339 15.272 4.63662 15.3137C4.63986 15.3555 4.65193 15.3961 4.67205 15.4328L7.46033 20.5562C7.48543 20.6028 7.52269 20.6417 7.56815 20.6687L10.5017 22.4297C10.5398 22.4524 10.5723 22.4833 10.5967 22.5202C10.6212 22.5571 10.6371 22.5991 10.6431 22.643L11.2306 26.9039C11.2364 26.9447 11.2505 26.9839 11.2722 27.019C11.2938 27.0541 11.3225 27.0844 11.3564 27.1078L13.6455 28.6812C13.7118 28.7268 13.758 28.7962 13.7744 28.875L14.9885 34.6406C14.9953 34.6745 15.0082 34.7068 15.0267 34.7359C15.1408 34.9203 15.5955 35.5953 16.1439 35.6953C16.0931 35.7094 16.0478 35.7414 15.9971 35.7562C16.1288 35.7795 16.2592 35.8097 16.3877 35.8469C16.5439 35.8891 16.7002 35.925 16.8564 35.9586C17.101 36.007 17.1252 36.0445 17.2424 35.8273C17.3986 35.5367 17.5775 35.4367 17.7111 35.4008C17.7662 35.3881 17.8167 35.3601 17.8566 35.32C17.8966 35.2799 17.9244 35.2294 17.9369 35.1742L18.7236 31.5273C18.7402 31.4509 18.7848 31.3834 18.8486 31.3383L22.3642 28.8461C22.4051 28.8172 22.4384 28.7789 22.4614 28.7344C22.4844 28.69 22.4963 28.6407 22.4963 28.5906V23.9062C22.4967 23.8581 22.486 23.8104 22.465 23.7671C22.444 23.7237 22.4133 23.6858 22.3752 23.6562Z" fill="white"/>
<path d="M20.4689 3.75C20.4689 3.75 20.1838 3.76641 20.126 3.76797C19.7025 3.78047 19.2801 3.80964 18.8588 3.85547C17.3228 4.02215 15.8185 4.40756 14.3916 5C14.5814 5.13125 14.2549 5.25156 14.2549 5.25156L14.7658 6.25H17.5002L19.3752 7.1875L21.0158 6.25L20.4689 3.75ZM27.6744 9.37969L28.933 8.28594C28.9724 8.25174 29.0026 8.20823 29.0209 8.15937C29.0391 8.11051 29.0449 8.05785 29.0376 8.0062C29.0303 7.95455 29.0102 7.90554 28.9791 7.86366C28.948 7.82178 28.9069 7.78834 28.8596 7.76641L27.39 7.08437C27.3154 7.04955 27.23 7.04561 27.1525 7.07341C27.0749 7.1012 27.0115 7.15849 26.976 7.23281L26.3705 8.49922C26.3376 8.56845 26.3312 8.64739 26.3527 8.721C26.3741 8.79461 26.4219 8.85776 26.4869 8.89844L27.3041 9.40938C27.3609 9.4447 27.4275 9.46088 27.4941 9.45553C27.5608 9.45019 27.624 9.4236 27.6744 9.37969ZM33.5658 10.9898L33.1103 10.2867C33.1033 10.2758 33.0971 10.2648 33.0908 10.2531C33.0088 10.0852 32.3299 8.71406 31.7627 8.18203C31.3369 7.77969 31.2158 7.89531 31.1822 7.98438C31.163 8.03363 31.1309 8.07681 31.0893 8.10938L28.8361 9.93047C28.7806 9.97536 28.7114 9.9999 28.64 10H27.4736C27.4326 9.99997 27.3919 10.008 27.354 10.0237C27.3161 10.0394 27.2816 10.0624 27.2525 10.0914L26.315 11.0289C26.286 11.0579 26.2629 11.0924 26.2472 11.1303C26.2315 11.1683 26.2234 11.2089 26.2234 11.25C26.2234 11.2911 26.2315 11.3317 26.2472 11.3697C26.2629 11.4076 26.286 11.4421 26.315 11.4711L27.2525 12.4086C27.2816 12.4376 27.3161 12.4606 27.354 12.4763C27.3919 12.492 27.4326 12.5 27.4736 12.5H33.3463C33.3885 12.5 33.4302 12.4915 33.469 12.475C33.5078 12.4585 33.5429 12.4343 33.5721 12.4038C33.6013 12.3734 33.624 12.3374 33.6389 12.2979C33.6538 12.2584 33.6606 12.2164 33.6588 12.1742L33.6158 11.1469C33.6135 11.091 33.5962 11.0368 33.5658 10.9898Z" fill="white"/>
<path d="M20 5.625C23.3257 5.62472 26.5487 6.77762 29.1197 8.88724C31.6907 10.9969 33.4507 13.9327 34.0998 17.1945C34.7488 20.4563 34.2468 23.8422 32.6793 26.7754C31.1118 29.7086 28.5757 32.0075 25.5032 33.2804C22.4307 34.5533 19.0119 34.7215 15.8293 33.7563C12.6467 32.7911 9.8972 30.7522 8.04934 27.9871C6.20147 25.222 5.36955 21.9016 5.69533 18.5919C6.0211 15.2821 7.48442 12.1877 9.83594 9.83594C11.1675 8.49678 12.7514 7.43507 14.4961 6.71225C16.2408 5.98944 18.1115 5.61989 20 5.625ZM20 2.5C10.3359 2.5 2.5 10.3359 2.5 20C2.5 29.6641 10.3359 37.5 20 37.5C29.6641 37.5 37.5 29.6641 37.5 20C37.5 10.3359 29.6641 2.5 20 2.5Z" fill="white"/>
</svg>
